<?xml version="1.0" encoding="UTF-8"?>
<svg id="Layer_1" xmlns="http://www.w3.org/2000/svg" version="1.1" viewBox="0 0 434.6 133.8">
  <!-- Generator: Adobe Illustrator 29.8.1, SVG Export Plug-In . SVG Version: 2.1.1 Build 2)  -->
  <defs>
    <style>
      .st0 {
        fill: #6263ad;
      }
    </style>
  </defs>
  <path class="st0" d="M24.7,96.2c.2-.4.2-.8,0-1.2L.1,39.2c-.4-1,.3-2.1,1.4-2.1h15.4c.6,0,1.2.4,1.4.9l15,36c.1.2.3.4.6.4s.5-.2.6-.4l14.4-35.9c.2-.6.8-.9,1.4-.9h15c1.1,0,1.8,1.1,1.4,2.1L29.4,124.9c-.2.5-.8.9-1.4.9h-14.4c-1.1,0-1.8-1.1-1.4-2.1l12.5-27.5Z"/>
  <path class="st0" d="M110,92.1h-.3c-.4,0-.9.2-1.2.5-1.8,2.1-4,4-6.5,5.5-2.7,1.7-6.2,2.5-10.5,2.5s-6.2-.5-9-1.6c-2.8-1-5.3-2.5-7.3-4.3-2.1-1.8-3.7-4.1-4.9-6.7s-1.8-5.4-1.8-8.5.6-6,1.9-8.6c1.3-2.6,3-4.8,5.3-6.6,2.3-1.8,4.9-3.2,8-4.2,3.1-1,6.4-1.4,10-1.4s7.3.3,9.9.9c1.8.4,3.3.9,4.6,1.3.9.3,1.8-.4,1.8-1.3,0-3.3-1.3-6-3.9-8.1-2.6-2.1-5.8-3.2-9.7-3.2s-9.8,2-13.5,6.1c-.5.6-1.4.7-2,.3l-9.4-6.5c-.7-.5-.9-1.5-.3-2.1,6.4-7.4,15-11.1,25.8-11.1s16.8,2.2,21.9,6.7c5,4.5,7.5,11.1,7.5,19.9v35.4c0,.8-.7,1.5-1.5,1.5h-13.2c-.8,0-1.5-.7-1.5-1.5v-4.8c0,0,0-.1,0-.1ZM110,74.7c0-.6-.3-1.1-.8-1.3-1.6-.7-3.4-1.4-5.1-1.8-2.1-.5-4.3-.8-6.7-.8-3.9,0-7,.9-9.1,2.6-2.1,1.7-3.2,3.8-3.2,6.3s1,4.5,3.1,6c2.1,1.5,4.4,2.3,7.1,2.3s4.2-.4,6-1.2c1.8-.8,3.4-1.8,4.7-3.1,1.3-1.3,2.3-2.8,3-4.5.6-1.5,1-3,1.1-4.5Z"/>
  <path class="st0" d="M157.1,96.2c.2-.4.2-.8,0-1.2l-24.7-55.8c-.4-1,.3-2.1,1.4-2.1h15.4c.6,0,1.2.4,1.4.9l15,36c.1.2.3.4.6.4s.5-.2.6-.4l14.5-35.9c.2-.6.8-.9,1.4-.9h15c1.1,0,1.8,1.1,1.4,2.1l-37.3,85.7c-.2.5-.8.9-1.4.9h-14.4c-1.1,0-1.8-1.1-1.4-2.1l12.5-27.5Z"/>
  <path class="st0" d="M242.3,92.1h-.3c-.4,0-.9.2-1.2.5-1.8,2.1-4.1,4-6.5,5.5-2.7,1.7-6.2,2.5-10.5,2.5s-6.2-.5-9-1.6c-2.8-1-5.3-2.5-7.3-4.3-2.1-1.8-3.7-4.1-4.9-6.7-1.2-2.6-1.8-5.4-1.8-8.5s.6-6,1.9-8.6,3-4.8,5.3-6.6c2.3-1.8,4.9-3.2,8-4.2,3.1-1,6.4-1.4,10-1.4s7.3.3,9.9.9c1.8.4,3.3.9,4.6,1.3.9.3,1.8-.4,1.8-1.3,0-3.3-1.3-6-3.9-8.1-2.6-2.1-5.8-3.2-9.7-3.2s-9.8,2-13.5,6.1c-.5.6-1.4.7-2,.3l-9.4-6.5c-.7-.5-.9-1.5-.3-2.1,6.4-7.4,15.1-11.1,25.8-11.1s16.8,2.2,21.9,6.7c5.1,4.5,7.5,11.1,7.5,19.9v35.4c0,.8-.7,1.5-1.5,1.5h-13.2c-.8,0-1.5-.7-1.5-1.5v-4.8c0,0,0-.1,0-.1ZM242.3,74.7c0-.6-.3-1.1-.8-1.3-1.6-.7-3.4-1.4-5.1-1.8-2.1-.5-4.3-.8-6.7-.8-3.9,0-7,.9-9.1,2.6-2.1,1.7-3.2,3.8-3.2,6.3s1,4.5,3.1,6c2,1.5,4.4,2.3,7.1,2.3s4.2-.4,6-1.2c1.8-.8,3.4-1.8,4.7-3.1,1.3-1.3,2.3-2.8,3-4.5.6-1.5.9-3,1.1-4.5Z"/>
  <path class="st0" d="M316.3,50.8c0-.8.7-1.5,1.5-1.5h41.5c.7,0,1.3.4,1.4,1.1.2.8.3,1.6.3,2.5.2,1.4.3,2.9.3,4.3,0,5.8-.9,11.2-2.6,16.3-1.8,5.1-4.5,9.7-8.3,13.7-4,4.3-8.8,7.6-14.4,9.9-5.6,2.3-12,3.5-19.2,3.5s-12.7-1.2-18.5-3.5c-5.8-2.3-10.8-5.6-15.1-9.8-4.3-4.2-7.7-9.2-10.2-14.9-2.5-5.7-3.8-12-3.8-18.8s1.3-13,3.8-18.8c2.5-5.7,5.9-10.7,10.2-14.9s9.3-7.5,15.1-9.8c5.8-2.3,11.9-3.5,18.5-3.5s13.8,1.3,19.5,3.8c5.2,2.3,9.9,5.4,13.8,9.3.6.6.6,1.5,0,2.1l-9.6,9.3c-.6.6-1.6.6-2.2,0-2.6-2.6-5.6-4.6-8.7-6-3.6-1.6-7.9-2.4-12.9-2.4s-8,.7-11.7,2.2c-3.7,1.5-6.9,3.5-9.7,6.2-2.8,2.7-5,5.9-6.6,9.7-1.6,3.8-2.4,8.1-2.4,12.8s.8,8.9,2.4,12.8c1.6,3.8,3.9,7.1,6.7,9.7,2.8,2.7,6,4.8,9.7,6.2,3.7,1.4,7.6,2.2,11.8,2.2s8.8-.7,12.1-2.1c3.3-1.4,6.1-3.2,8.5-5.3,1.7-1.5,3.1-3.4,4.3-5.7.9-1.8,1.8-3.8,2.4-5.9.3-.9-.5-1.8-1.4-1.8h-24.9c-.8,0-1.5-.7-1.5-1.5v-11.4Z"/>
  <path class="st0" d="M401.9,35.1c4.8,0,9.2.8,13.1,2.4,4,1.6,7.4,3.9,10.3,6.8,2.9,2.9,5.1,6.3,6.8,10.4,1.6,4,2.5,8.4,2.5,13.2s-.8,9.2-2.5,13.2c-1.6,4-3.9,7.5-6.8,10.4s-6.3,5.2-10.3,6.8c-4,1.6-8.4,2.5-13.1,2.5s-9.1-.8-13.1-2.5c-4-1.6-7.4-3.9-10.3-6.8-2.9-2.9-5.2-6.3-6.8-10.4-1.6-4-2.5-8.4-2.5-13.2s.8-9.2,2.5-13.2,3.9-7.5,6.8-10.4c2.9-2.9,6.3-5.1,10.3-6.8,3.9-1.6,8.3-2.4,13.1-2.4ZM401.9,85.5c2.1,0,4.1-.4,6.1-1.2,2-.8,3.7-1.9,5.2-3.5,1.5-1.5,2.7-3.3,3.6-5.5.9-2.2,1.3-4.7,1.3-7.4s-.4-5.2-1.3-7.4c-.9-2.2-2.1-4-3.6-5.5s-3.2-2.7-5.2-3.5c-2-.8-4-1.2-6.1-1.2s-4.2.4-6.2,1.2c-1.9.8-3.6,1.9-5.2,3.5-1.5,1.5-2.7,3.3-3.6,5.5-.9,2.2-1.3,4.7-1.3,7.4s.4,5.2,1.3,7.4c.9,2.2,2.1,4,3.6,5.5s3.2,2.7,5.2,3.5c1.9.8,4,1.2,6.2,1.2Z"/>
</svg>