<?xml version="1.0" encoding="UTF-8"?>
<svg id="Layer_1" xmlns="http://www.w3.org/2000/svg" version="1.1" viewBox="0 0 396.9 396.9">
  <!-- Generator: Adobe Illustrator 29.8.1, SVG Export Plug-In . SVG Version: 2.1.1 Build 2)  -->
  <defs>
    <style>
      .st0 {
        fill: #fff;
      }

      .st1 {
        fill: #6263ad;
      }
    </style>
  </defs>
  <path class="st1" d="M281.9,331.7H114.6c-27.4,0-49.6-22.2-49.6-49.6V114.8c0-27.4,22.2-49.6,49.6-49.6h167.3c27.4,0,49.6,22.2,49.6,49.6v167.3c0,27.4-22.2,49.6-49.6,49.6Z"/>
  <path class="st0" d="M239.4,101.8c-2.6,0-4.7,2.1-4.7,4.7v51.2c0,22.1-15.6,39.9-36.5,39.9s-36.2-17.8-36.2-39.9v-51.2c0-2.6-2.1-4.7-4.7-4.7h-27.1c-2.6,0-4.7,2.1-4.7,4.7v51.2c0,42.3,32.9,77,72.8,77s73-34.6,73-77v-51.2c0-2.6-2.1-4.7-4.7-4.7h-27.2Z"/>
  <path class="st0" d="M230.9,239.9c-1.6,0-3,.8-3.9,2.1-6.5,9.3-16.9,15.2-28.9,15.2s-20.9-6-27.9-15.4c-.9-1.2-2.3-2-3.8-2h-31.2c-3.3,0-5.7,3.4-4.4,6.5,10.9,28.1,37.1,48,67.3,48s56.7-19.9,67.5-48c1.2-3.1-1.1-6.5-4.4-6.5h-30.3Z"/>
</svg>